<svg version="1.1" id="clock" xmlns="http://www.w3.org/2000/svg" xmlns:xlink="http://www.w3.org/1999/xlink" x="0px" y="0px"
	 viewBox="0 0 512 512" style="enable-background:new 0 0 512 512;" xml:space="preserve">
<g>
	<g>
		<path d="M437.019,74.98C388.667,26.628,324.38,0,256,0S123.333,26.628,74.981,74.98C26.628,123.333,0,187.619,0,256
			s26.628,132.667,74.981,181.02C123.333,485.372,187.62,512,256,512s132.667-26.628,181.019-74.98
			C485.372,388.667,512,324.381,512,256S485.372,123.333,437.019,74.98z M256,489.739C127.116,489.739,22.261,384.884,22.261,256
			S127.116,22.261,256,22.261S489.739,127.116,489.739,256S384.884,489.739,256,489.739z"/>
	</g>
</g>
<g>
	<g>
		<path d="M256,44.522C139.391,44.522,44.522,139.39,44.522,256S139.391,467.478,256,467.478S467.478,372.61,467.478,256
			S372.609,44.522,256,44.522z M267.13,444.881v-10.794c0-6.146-4.983-11.13-11.13-11.13c-6.147,0-11.13,4.984-11.13,11.13v10.794
			C149.38,439.314,72.686,362.62,67.119,267.13h21.925c6.147,0,11.13-4.984,11.13-11.13c0-6.146-4.983-11.13-11.13-11.13H67.119
			C72.686,149.38,149.38,72.686,244.87,67.119v10.794c0,6.146,4.983,11.13,11.13,11.13c6.147,0,11.13-4.984,11.13-11.13V67.119
			c95.489,5.567,172.183,82.262,177.751,177.751h-10.794c-6.147,0-11.13,4.984-11.13,11.13c0,6.146,4.983,11.13,11.13,11.13h10.794
			C439.314,362.62,362.62,439.314,267.13,444.881z"/>
	</g>
</g>
<g>
	<g>
		<path d="M351.722,313.878l-84.591-63.443v-16.696c0-6.146-4.983-11.13-11.13-11.13c-6.147,0-11.13,4.984-11.13,11.13V256
			c0,3.503,1.65,6.802,4.452,8.904l89.044,66.783c2.002,1.503,4.345,2.227,6.669,2.227c3.384,0,6.726-1.538,8.913-4.453
			C357.635,324.543,356.639,317.566,351.722,313.878z"/>
	</g>
</g>
<g>
	<g>
		<path d="M263.869,192.479c-2.07-2.07-4.942-3.261-7.869-3.261c-2.927,0-5.799,1.19-7.869,3.261
			c-2.07,2.07-3.261,4.942-3.261,7.869s1.191,5.799,3.261,7.868c2.07,2.071,4.942,3.262,7.869,3.262
			c2.927,0,5.799-1.191,7.869-3.262c2.07-2.069,3.261-4.941,3.261-7.868S265.939,194.549,263.869,192.479z"/>
	</g>
</g>
<g>
	<g>
		<path d="M256,133.565c-6.147,0-11.13,4.984-11.13,11.13v22.261c0,6.146,4.983,11.13,11.13,11.13c6.147,0,11.13-4.984,11.13-11.13
			v-22.261C267.13,138.549,262.147,133.565,256,133.565z"/>
	</g>
</g>
<g>
	<g>
		<path d="M130.493,248.131c-2.07-2.07-4.942-3.261-7.869-3.261c-2.938,0-5.799,1.19-7.869,3.261
			c-2.081,2.07-3.261,4.942-3.261,7.869c0,2.927,1.18,5.799,3.261,7.868c2.07,2.07,4.942,3.262,7.869,3.262s5.799-1.191,7.869-3.262
			c2.07-2.069,3.261-4.941,3.261-7.868C133.754,253.073,132.563,250.201,130.493,248.131z"/>
	</g>
</g>
</svg>
