<svg xmlns="http://www.w3.org/2000/svg" width="125" height="40"><g fill="#FFF" fill-rule="evenodd"><path fill-rule="nonzero" d="M4.8 34.4h30.4a4.8 4.8 0 0 1 4.8 4.8v.8H0v-.8a4.8 4.8 0 0 1 4.8-4.8zM1.8 0h4.1a.6.6 0 0 1 .6.6v2.2h2.6V.6a.6.6 0 0 1 .6-.6h4.4a.6.6 0 0 1 .6.6v2.2h2.6V.6a.6.6 0 0 1 .6-.6H22a.6.6 0 0 1 .6.6V6a2.3 2.3 0 0 1-2.3 2.3H3.5A2.3 2.3 0 0 1 1.2 6V.6a.6.6 0 0 1 .6-.6zm15.1 10.2H21a.6.6 0 0 1 .6.6V13h2.6v-2.2a.6.6 0 0 1 .6-.6h4.4a.6.6 0 0 1 .6.6V13h2.6v-2.2a.6.6 0 0 1 .6-.6h4.1a.6.6 0 0 1 .6.6v5.4a2.3 2.3 0 0 1-2.3 2.3H18.6a2.3 2.3 0 0 1-2.3-2.3v-5.4a.6.6 0 0 1 .6-.6zm13.7 23.3v-4.7a3.6 3.6 0 1 0-7.2 0v4.7h-5.2v-14h17.6v14h-5.2zM15.935 9.4a1.7 1.7 0 0 0-.735 1.4v5.4a3.4 3.4 0 0 0 1.9 3.052V33.5h-1.6v-4.7a3.6 3.6 0 1 0-7.2 0v4.7H4.1V9.4h11.835z"/><path d="M59.805 27.452c-1.125.544-2.593.817-4.405.817-2.363 0-4.221-.695-5.575-2.084-1.353-1.39-2.03-3.241-2.03-5.554 0-2.464.76-4.462 2.283-5.994 1.521-1.533 3.496-2.3 5.924-2.3 1.504 0 2.771.19 3.803.57v3.341c-1.032-.616-2.206-.924-3.524-.924-1.446 0-2.614.455-3.502 1.364-.888.91-1.332 2.142-1.332 3.696 0 1.49.42 2.676 1.257 3.56.838.885 1.966 1.327 3.384 1.327 1.353 0 2.592-.329 3.717-.988v3.17zM76.036 28h-3.781l-1.096-3.427h-5.478L64.596 28h-3.76l5.607-15.404h4.115L76.036 28zm-5.672-6.09l-1.654-5.18a6.747 6.747 0 0 1-.258-1.385h-.086a5.875 5.875 0 0 1-.268 1.342l-1.676 5.221h3.942zm6.886 5.5v-3.438a6.605 6.605 0 0 0 4.243 1.568c.437 0 .818-.04 1.144-.118a2.68 2.68 0 0 0 .817-.328c.218-.14.381-.304.488-.494a1.23 1.23 0 0 0 .162-.618c0-.3-.086-.569-.258-.805a2.774 2.774 0 0 0-.704-.656c-.297-.2-.65-.393-1.058-.58a36.417 36.417 0 0 0-1.321-.569c-1.203-.501-2.1-1.114-2.691-1.837-.591-.723-.886-1.597-.886-2.62 0-.803.16-1.492.483-2.069.322-.576.76-1.05 1.316-1.423a5.9 5.9 0 0 1 1.928-.822 9.908 9.908 0 0 1 2.32-.263c.802 0 1.513.048 2.133.145.62.097 1.19.245 1.713.446v3.212a5.18 5.18 0 0 0-.843-.473 6.681 6.681 0 0 0-.94-.338 7.17 7.17 0 0 0-1.87-.264c-.393 0-.751.038-1.073.113a2.748 2.748 0 0 0-.817.317 1.577 1.577 0 0 0-.515.489c-.122.19-.183.403-.183.639 0 .258.068.489.204.693.136.204.33.397.58.58.25.183.555.362.913.537.358.176.763.356 1.214.543.616.257 1.17.531 1.66.821a5.9 5.9 0 0 1 1.262.983c.35.365.62.783.806 1.252.186.469.279 1.015.279 1.638 0 .86-.163 1.58-.489 2.164a3.968 3.968 0 0 1-1.327 1.418c-.558.362-1.208.622-1.95.78a11.29 11.29 0 0 1-2.346.236c-.846 0-1.65-.072-2.412-.215-.763-.144-1.423-.358-1.982-.645zm23.858-11.99h-4.393V28h-3.48V15.42h-4.373v-2.824h12.246v2.825zM112.355 28h-9.173V12.596h3.47v12.59h5.703V28zm11.312 0h-9.238V12.596h8.883v2.825h-5.414v3.427h5.039v2.814h-5.039v3.524h5.769V28z"/></g></svg>