<svg id="notification" viewBox="0 0 512.00091 512" xmlns="http://www.w3.org/2000/svg"><path d="m238.933594 392.535156h34.132812c9.421875-.011718 17.054688-7.648437 17.066406-17.066406v-34.136719c-.011718-9.417969-7.644531-17.054687-17.066406-17.066406h-34.132812c-9.421875.011719-17.054688 7.648437-17.066406 17.066406v34.136719c.011718 9.417969 7.644531 17.054688 17.066406 17.066406zm0-51.203125h34.132812l.007813 34.136719h-34.140625zm0 0"/><path d="m238.933594 298.667969h34.132812c9.421875-.011719 17.054688-7.644531 17.066406-17.066407v-153.601562c-.011718-9.421875-7.644531-17.054688-17.066406-17.066406h-34.132812c-9.421875.011718-17.054688 7.644531-17.066406 17.066406v153.601562c.011718 9.421876 7.644531 17.054688 17.066406 17.066407zm0-170.667969h34.132812l.007813 153.601562h-34.140625zm0 0"/><path d="m100.441406 459.226562-23.640625 23.640626c-4.878906 4.878906-6.339843 12.21875-3.699219 18.597656 2.640626 6.375 8.863282 10.535156 15.765626 10.535156h98.867187c9.421875-.011719 17.054687-7.644531 17.066406-17.066406v-98.867188c0-6.902344-4.160156-13.125-10.535156-15.765625-6.378906-2.640625-13.71875-1.179687-18.597656 3.699219l-26.390625 26.390625c-9.292969-6.429687-17.988282-13.683594-25.984375-21.664063-45.589844-45.542968-64.617188-111.292968-50.394531-174.144531 14.222656-62.847656 59.703124-114.003906 120.460937-135.476562 6.820313-2.390625 11.402344-8.816407 11.441406-16.042969v-36.003906c-.015625-5.417969-2.574219-10.511719-6.914062-13.757813-4.242188-3.203125-9.753907-4.195312-14.847657-2.667969-108.28125 32.710938-182.539062 132.253907-183.039062 245.367188-.128906 67.929688 26.894531 133.089844 75.058594 180.992188 7.988281 7.933593 16.464844 15.359374 25.382812 22.234374zm87.292969-432.167968-.066406 35.949218c-66.28125 23.429688-115.898438 79.230469-131.417969 147.796876-15.519531 68.5625 5.234375 140.292968 54.96875 189.980468 10.480469 10.460938 22.054688 19.773438 34.523438 27.769532 3.378906 2.164062 7.808593 1.6875 10.648437-1.144532l31.34375-31.34375v98.867188h-98.867187l30.65625-30.660156c1.78125-1.777344 2.683593-4.253907 2.46875-6.757813-.214844-2.507813-1.527344-4.792969-3.582032-6.246094-11.144531-7.90625-21.617187-16.726562-31.300781-26.367187-44.941406-44.703125-70.15625-105.511719-70.042969-168.902344.445313-105.511719 69.679688-198.382812 170.667969-228.941406zm0 0"/><path d="m314.113281 498.699219c4.242188 3.203125 9.753907 4.195312 14.847657 2.667969 108.28125-32.710938 182.539062-132.253907 183.039062-245.367188.128906-67.925781-26.894531-133.089844-75.058594-180.992188-7.984375-7.933593-16.460937-15.359374-25.378906-22.230468l23.636719-23.644532c4.882812-4.878906 6.339843-12.21875 3.699219-18.597656-2.640626-6.375-8.863282-10.535156-15.765626-10.535156h-98.867187c-9.417969.0117188-17.054687 7.644531-17.066406 17.066406v98.867188c.003906 6.902344 4.160156 13.125 10.535156 15.765625 6.378906 2.640625 13.71875 1.179687 18.601563-3.699219l26.390624-26.390625c9.289063 6.433594 17.984376 13.683594 25.984376 21.667969 45.589843 45.539062 64.617187 111.292968 50.394531 174.144531-14.222657 62.851563-59.707031 114.003906-120.464844 135.480469-6.820313 2.390625-11.398437 8.808594-11.441406 16.035156v36c.015625 5.417969 2.574219 10.515625 6.914062 13.761719zm10.222657-49.707031c66.28125-23.429688 115.902343-79.230469 131.417968-147.792969 15.519532-68.566407-5.234375-140.296875-54.964844-189.980469-10.484374-10.464844-22.058593-19.773438-34.527343-27.773438-3.375-2.171874-7.8125-1.691406-10.648438 1.148438l-31.347656 31.339844v-98.867188h98.867187l-30.65625 30.660156c-1.78125 1.777344-2.683593 4.253907-2.464843 6.761719.214843 2.507813 1.523437 4.789063 3.582031 6.242188 11.144531 7.90625 21.613281 16.726562 31.296875 26.367187 44.941406 44.707032 70.160156 105.511719 70.042969 168.902344-.445313 105.511719-69.675782 198.382812-170.667969 228.941406zm0 0"/></svg>