<svg xmlns="http://www.w3.org/2000/svg" xmlns:xlink="http://www.w3.org/1999/xlink" width="50" height="50" viewBox="0 0 50 50"><defs><path id="gov1a" d="M1357.021 2713.999c-13.78 0-25.021-11.197-25.021-25.022 0-13.824 11.197-24.978 25.021-24.978 13.825 0 24.979 11.197 24.979 24.978 0 13.782-11.197 25.022-24.979 25.022zm0-46.512c-11.843 0-21.49 9.647-21.49 21.49 0 11.844 9.647 21.49 21.49 21.49 11.844 0 21.49-9.646 21.49-21.49 0-11.843-9.646-21.49-21.49-21.49zm-2.368 33.98a1.725 1.725 0 0 1-1.25.517c-.43 0-.903-.173-1.248-.517a1.768 1.768 0 0 1 0-2.498l10.12-10.12-10.12-10.121a1.768 1.768 0 0 1 0-2.498 1.768 1.768 0 0 1 2.498 0l11.37 11.37c.344.344.516.775.516 1.248 0 .474-.172.904-.517 1.249z"/></defs><g><g transform="translate(-1332 -2664)"><use fill="#383838" xlink:href="#gov1a"/></g></g></svg>